<?xml version="1.0" encoding="UTF-8"?><svg id="a" xmlns="http://www.w3.org/2000/svg" viewBox="0 0 1000 1000"><defs><style>.b{stroke-width:18px;}.b,.c{fill:none;stroke:#ff0;stroke-miterlimit:10;}.c{stroke-width:44px;}.d{fill:#166678;}.e{fill:#ff0;}</style></defs><rect class="d" x="0" y="0" width="1000" height="1000"/><path class="e" d="M685.81,239.49c-50.64-49.84-106.74-74.76-168.28-74.76s-114.53,22.2-168.28,66.58c-67.79,56.09-114.53,128.51-140.23,217.28-9.36,31.95-14.03,58.43-14.03,79.45s.78,37.38,2.34,49.06c0,77.11,26.09,136.28,78.29,177.55,49.08,38.16,111.8,57.24,188.15,57.24,104.39-8.56,204.51-48.67,300.34-120.33,26.48-20.24,54.52-39.71,84.13-58.4,10.9,0,21.99,1.56,33.3,4.67,11.29,3.12,16.95,12.07,16.95,26.87-77.14,66.99-142.18,115.27-195.17,144.86-98.16,52.96-186.98,79.43-266.44,79.43h-15.18c-86.49,0-160.5-26.86-222.05-80.6-65.45-56.85-98.16-127.73-98.16-212.61,0-63.86,11.48-125,34.47-183.41,22.98-58.4,54.53-109.99,94.66-154.77,40.11-44.78,87.65-80.4,142.57-106.88s113.94-39.72,177.05-39.72c53.75,0,88.8,7.4,105.17,22.19,20.24,17.93,30.38,53.36,30.38,106.3Z"/><circle class="e" cx="354" cy="369" r="53"/><circle class="e" cx="603" cy="398" r="53"/><path class="b" d="M320,297c4.34-4.92,21.51-23.25,50.57-27.25,25.73-3.53,45.21,6.31,51.43,9.79"/><path class="b" d="M546.5,358c6.09-4.8,29.97-22.51,65.4-21.99,31.38.46,52.82,14.94,59.6,19.93"/><path class="c" d="M375,660c14.05-13.15,69.37-61.83,155.72-65.75,76.46-3.47,130.97,30.27,148.28,42"/><path class="e" d="M323.04,788c11.24-15.63,18.43-32.92,20.93-61.61,2.63-30.18-5.13-67.44-9.58-81.9-8.27-26.85-22.23-48.08-38.36-55.37-25.15-11.37-43.02,9.36-34.11,45.51,13.36,54.06,4.6,98.4-18.43,125.17"/></svg>